<?xml version="1.0" encoding="UTF-8" standalone="no"?>
<svg width="80px" height="80px" viewBox="0 0 80 80" version="1.1" xmlns="http://www.w3.org/2000/svg" xmlns:xlink="http://www.w3.org/1999/xlink">
    <!-- Generator: Sketch 3.8.3 (29802) - http://www.bohemiancoding.com/sketch -->
    <title>prd-default</title>
    <desc>Created with Sketch.</desc>
    <defs></defs>
    <g id="Page-1" stroke="none" stroke-width="1" fill="none" fill-rule="evenodd">
        <circle id="Oval-1" fill="#EAECEE" cx="40" cy="40" r="32"></circle>
        <path d="M53,34 L27,34 C26.448,34 26,33.553 26,33 C26,32.448 26.448,32 27,32 L53,32 C53.552,32 54,32.448 54,33 C54,33.553 53.552,34 53,34 L53,34 L53,34 Z M41,36 L52,36 L52,44 L41,44 L41,36 L41,36 Z M52,52 C52,53.104 51.104,54 50,54 L41,54 L41,46 L52,46 L52,52 L52,52 L52,52 Z M28,36 L39,36 L39,44 L28,44 L28,36 L28,36 Z M39,54 L30,54 C28.896,54 28,53.104 28,52 L28,46 L39,46 L39,54 L39,54 L39,54 Z M37,26 C38.104,26 39,26.896 39,28 C39,29.104 38.104,30 37,30 C35.896,30 35,29.104 35,28 C35,26.896 35.896,26 37,26 L37,26 L37,26 Z M43,26 C44.104,26 45,26.896 45,28 C45,29.104 44.104,30 43,30 C41.896,30 41,29.104 41,28 C41,26.896 41.896,26 43,26 L43,26 L43,26 Z M54,30 L46.445,30 C46.789,29.41 47,28.732 47,28 C47,25.791 45.209,24 43,24 C41.798,24 40.733,24.541 40,25.38 C39.267,24.541 38.202,24 37,24 C34.791,24 33,25.791 33,28 C33,28.732 33.211,29.41 33.555,30 L26,30 C24.896,30 24,30.896 24,32 L24,34 C24,35.104 24.896,36 26,36 L26,52 C26,54.209 27.791,56 30,56 L50,56 C52.209,56 54,54.209 54,52 L54,36 C55.104,36 56,35.104 56,34 L56,32 C56,30.896 55.104,30 54,30 L54,30 L54,30 Z" id="present" fill="#FFFFFF"></path>
    </g>
</svg>