<?xml version="1.0" encoding="UTF-8" standalone="no"?>
<svg width="80px" height="80px" viewBox="0 0 80 80" version="1.1" xmlns="http://www.w3.org/2000/svg" xmlns:xlink="http://www.w3.org/1999/xlink">
    <!-- Generator: Sketch 3.8.3 (29802) - http://www.bohemiancoding.com/sketch -->
    <title>user headphone.1</title>
    <desc>Created with Sketch.</desc>
    <defs></defs>
    <g id="Page-1" stroke="none" stroke-width="1" fill="none" fill-rule="evenodd">
        <g id="avatar">
            <g id="Frames-24px" fill="#4990E2">
                <rect id="Rectangle-path" x="0" y="-4.88498131e-14" width="80" height="80" rx="40"></rect>
            </g>
            <g id="1457533661-headset" transform="translate(15.000000, 15.000000)">
                <g id="Layer_1">
                    <rect id="Rectangle-path" x="0" y="0" width="50" height="50"></rect>
                    <path d="M40.969745,37.8182694 C39.8206231,37.3978191 39,36.2943545 39,35 L39,20 C39,18.7316947 39.7879249,17.6466733 40.900769,17.2079415 C40.0099668,9.21478309 33.2309079,3 25,3 C16.7690921,3 9.99003323,9.21478309 9.09923103,17.2079415 C10.2120751,17.6466733 11,18.7316947 11,20 L11,35 C11,36.6562847 9.65628475,38 8,38 C6.66354902,38 5.53060659,37.1251304 5.14289181,35.9171104 C2.15876671,35.3326995 0,31.7326717 0,27.5 C0,23.266068 2.15847481,19.6670109 5.14290677,19.082843 C5.43914252,18.1599004 6.1703812,17.4314296 7.09502942,17.1390242 C8.02626813,8.07216476 15.6870817,1 25,1 C34.3129183,1 41.9737319,8.07216476 42.9049706,17.1390242 C43.8296048,17.4314252 44.5608354,18.1598783 44.8570798,19.0828011 C47.8420274,19.6668014 50,23.2655284 50,27.5 C50,31.7332114 47.8417355,35.3329092 44.8570947,35.9171523 C44.5681525,36.8173767 43.8653592,37.5325858 42.9729028,37.8385918 C42.6403292,42.8973119 39.2671429,46 34,46 L30.8291545,46 C30.4171249,47.1649458 29.3056859,48 28,48 L23,48 C21.3437153,48 20,46.6562847 20,45 C20,43.3437153 21.3437153,42 23,42 L28,42 C29.3056859,42 30.4171249,42.8350542 30.8291545,44 L34,44 C38.1673737,44 40.6707264,41.7593188 40.969745,37.8182694 Z M5,33.7839911 L5,21.2158469 C3.3312503,21.944141 2,24.437495 2,27.5 C2,30.5613142 3.33151713,33.0553329 5,33.7839911 Z M45,21.2157202 L45,33.7841179 C46.668803,33.0556863 48,30.5618867 48,27.5 C48,24.4369225 46.6690698,21.9437877 45,21.2157202 Z" id="Combined-Shape" fill="#FFFFFF"></path>
                </g>
            </g>
        </g>
    </g>
</svg>