<?xml version="1.0" encoding="utf-8"?>
<!-- Generator: Adobe Illustrator 21.0.0, SVG Export Plug-In . SVG Version: 6.00 Build 0)  -->
<svg version="1.1" id="圖層_1" xmlns="http://www.w3.org/2000/svg" xmlns:xlink="http://www.w3.org/1999/xlink" x="0px" y="0px"
	 viewBox="0 0 64 64" style="enable-background:new 0 0 64 64;" xml:space="preserve">
<style type="text/css">
	.st0{fill:#FFFFFF;}
</style>
<g id="member">
	<g id="icon-purview-cash-blue">
		<path id="Combined-Shape" class="st0" d="M58.2,12.2H6c-3,0-5.4,2.5-5.4,5.4v28.1c0,3,2.5,5.4,5.4,5.4h52.2c3,0,5.4-2.5,5.4-5.4
			V17.7C63.7,14.6,61.3,12.2,58.2,12.2L58.2,12.2z M59.1,40.6c-0.4-0.1-0.9-0.2-1.4-0.2c-3.1,0-5.5,2.5-5.5,5.5c0,0.3,0,0.4,0.1,0.7
			H11.7c0.1-0.4,0.1-0.7,0.1-1.1c0-3.1-2.5-5.5-5.5-5.5c-0.4,0-0.6,0-1,0.1V23.3c0.4,0.1,0.6,0.1,1,0.1c3.1,0,5.5-2.5,5.5-5.5
			c0-0.4,0-0.7-0.1-1.1h40.6c-0.1,0.4-0.2,0.9-0.2,1.3c0,3.1,2.5,5.5,5.5,5.5c0.4,0,1-0.1,1.4-0.2V40.6L59.1,40.6z M32.5,19.7
			c-6.7,0-12,5.3-12,12s5.3,12,12,12s12-5.3,12-12C44.5,25.2,39.2,19.7,32.5,19.7z M36,36.5c-0.5,0.6-1.2,1.1-2,1.3
			c-0.4,0.1-0.5,0.3-0.5,0.6v1.1c0,0.4-0.2,0.5-0.4,0.5h-1.1c-0.4,0-0.5-0.2-0.5-0.5v-0.8c0-0.5,0-0.6-0.5-0.7
			c-0.7-0.1-1.4-0.3-2-0.6c-0.5-0.3-0.5-0.4-0.4-0.9c0.1-0.4,0.3-0.8,0.4-1.1c0.2-0.4,0.3-0.5,0.7-0.3c0.7,0.4,1.5,0.6,2.3,0.7
			c0.5,0.1,1,0,1.5-0.2c0.9-0.4,1.1-1.4,0.3-2c-0.3-0.2-0.5-0.4-0.9-0.5c-0.8-0.4-1.6-0.6-2.3-1.1c-1.1-0.7-1.9-1.7-1.8-3.2
			c0.1-1.7,1.1-2.6,2.5-3.2c0.6-0.3,0.6-0.2,0.6-0.9v-0.6c0-0.5,0.1-0.6,0.6-0.6h0.4c1.1,0,1.1,0,1.1,1.1c0,0.7,0,0.7,0.7,0.9
			c0.5,0.1,1.1,0.3,1.6,0.5c0.3,0.1,0.4,0.4,0.4,0.6c-0.1,0.4-0.3,0.9-0.4,1.3c-0.2,0.4-0.3,0.5-0.7,0.3c-0.8-0.4-1.7-0.5-2.5-0.5
			c-0.3,0-0.4,0.1-0.7,0.2c-0.8,0.4-0.9,1.1-0.3,1.8c0.4,0.3,0.7,0.4,1.1,0.6c0.7,0.3,1.4,0.5,2,0.9C36.9,32.1,37.4,34.7,36,36.5z"
			/>
	</g>
</g>
</svg>
