<?xml version="1.0" encoding="utf-8"?>
<!-- Generator: Adobe Illustrator 21.0.0, SVG Export Plug-In . SVG Version: 6.00 Build 0)  -->
<svg version="1.1" id="圖層_1" xmlns="http://www.w3.org/2000/svg" xmlns:xlink="http://www.w3.org/1999/xlink" x="0px" y="0px"
	 viewBox="0 0 64 64" style="enable-background:new 0 0 64 64;" xml:space="preserve">
<style type="text/css">
	.st0{fill:#0090D4;}
</style>
<g id="member">
	<g id="icon-purview-gift-white">
		<path id="Shape" class="st0" d="M58.2,17.1H51c2.5-1.6,4.2-4.2,4.2-7.2c0-4.9-4.5-8.8-9.9-8.8C40.6,1,35,9,32,14.1
			C28.9,8.9,23.4,1,18.8,1c-5.5,0-9.9,4-9.9,8.8c0,3,1.7,5.6,4.2,7.2H5.8c-3.2,0-5.8,2.6-5.8,5.8V32c0,2.3,1.3,4.2,3.2,5.2v21
			C3.2,61.4,5.8,64,9,64h46.3c3.2,0,5.8-2.6,5.8-5.8V36.9c1.7-1,2.8-2.8,2.8-4.9v-9.2C64,19.7,61.4,17.1,58.2,17.1L58.2,17.1z
			 M5.8,32.5c-0.3,0-0.5-0.2-0.5-0.5v-9.2c0-0.3,0.2-0.5,0.5-0.5h23.6v10.2H5.8L5.8,32.5z M34.6,22.3h23.6c0.3,0,0.5,0.2,0.5,0.5
			v9.1c0,0.3-0.2,0.5-0.5,0.5H34.6V22.3z M45.2,6.2c2.5,0,4.7,1.6,4.7,3.6c0,1.9-2.1,3.6-4.7,3.6h-6.5C41.4,9.5,44.1,6.4,45.2,6.2
			L45.2,6.2z M18.7,6.2c1.2,0.2,3.9,3.3,6.6,7.1h-6.5c-2.5,0-4.7-1.6-4.7-3.6C14,7.8,16.2,6.2,18.7,6.2L18.7,6.2z M8.5,58.2V37.8
			h20.9v21H9C8.7,58.7,8.5,58.5,8.5,58.2L8.5,58.2z M55.4,58.7H34.6V37.8h21.3v20.4C55.9,58.5,55.7,58.7,55.4,58.7L55.4,58.7z"/>
	</g>
</g>
</svg>
