<?xml version="1.0" encoding="UTF-8" standalone="no"?>
<svg width="64px" height="64px" viewBox="0 0 64 64" version="1.1" xmlns="http://www.w3.org/2000/svg" xmlns:xlink="http://www.w3.org/1999/xlink">
    <!-- Generator: Sketch 39.1 (31720) - http://www.bohemiancoding.com/sketch -->
    <title>icon-check-circle</title>
    <desc>Created with Sketch.</desc>
    <defs></defs>
    <g id="cart/order/product" stroke="none" stroke-width="1" fill="none" fill-rule="evenodd">
        <g id="icon-check-circle" fill="#5EB63E">
            <path d="M29.0433957,42.3763778 L54.4398806,16.9798929 C49.5944984,9.75526123 41.3525746,5 32,5 C17.0883118,5 5,17.0883118 5,32 C5,46.9116882 17.0883118,59 32,59 C46.9116882,59 59,46.9116882 59,32 C59,28.1686155 58.2019621,24.5236226 56.7630417,21.2221769 L30.6717573,47.3134614 C29.7619941,48.2232245 28.2959428,48.2321908 27.383124,47.319372 C27.2766059,47.2128539 27.1826013,47.0985621 27.1011207,46.9783135 C27.0320412,46.9232642 26.9653266,46.8637539 26.9013626,46.7997899 L12.6877016,32.5861289 C11.7706059,31.6690332 11.7754677,30.20417 12.6819665,29.2976712 C13.5947853,28.3848525 15.060758,28.3937401 15.9704242,29.3034063 L29.0433957,42.3763778 Z M0,32 C0,14.326888 14.326888,0 32,0 C49.673112,0 64,14.326888 64,32 C64,49.673112 49.673112,64 32,64 C14.326888,64 0,49.673112 0,32 Z" id="Combined-Shape"></path>
        </g>
    </g>
</svg>